<svg width="24" height="24" viewBox="0 0 24 24" fill="none" xmlns="http://www.w3.org/2000/svg">
<path d="M12.5 4.55833C14.7667 4.55833 15.05 4.55833 15.9708 4.62917C18.3083 4.7 19.3708 5.83333 19.4417 8.1C19.5125 9.02083 19.5125 9.23333 19.5125 11.5C19.5125 13.7667 19.5125 14.05 19.4417 14.9C19.3708 17.1667 18.2375 18.3 15.9708 18.3708C15.05 18.4417 14.8375 18.4417 12.5 18.4417C10.2333 18.4417 9.95 18.4417 9.1 18.3708C6.7625 18.3 5.7 17.1667 5.62917 14.9C5.55833 13.9792 5.55833 13.7667 5.55833 11.5C5.55833 9.23333 5.55833 8.95 5.62917 8.1C5.7 5.83333 6.83333 4.7 9.1 4.62917C9.95 4.55833 10.2333 4.55833 12.5 4.55833ZM12.5 3C10.1625 3 9.87917 3 9.02917 3.07083C5.9125 3.2125 4.2125 4.9125 4.07083 8.02917C4 8.87917 4 9.1625 4 11.5C4 13.8375 4 14.1208 4.07083 14.9708C4.2125 18.0875 5.9125 19.7875 9.02917 19.9292C9.87917 20 10.1625 20 12.5 20C14.8375 20 15.1208 20 15.9708 19.9292C19.0875 19.7875 20.7875 18.0875 20.9292 14.9708C21 14.1208 21 13.8375 21 11.5C21 9.1625 21 8.87917 20.9292 8.02917C20.7875 4.9125 19.0875 3.2125 15.9708 3.07083C15.1208 3 14.8375 3 12.5 3ZM12.5 7.10833C10.0917 7.10833 8.10833 9.09167 8.10833 11.5C8.10833 13.9083 10.0917 15.8917 12.5 15.8917C14.9083 15.8917 16.8917 13.9083 16.8917 11.5C16.8917 9.09167 14.9083 7.10833 12.5 7.10833ZM12.5 14.3333C10.9417 14.3333 9.66667 13.0583 9.66667 11.5C9.66667 9.94167 10.9417 8.66667 12.5 8.66667C14.0583 8.66667 15.3333 9.94167 15.3333 11.5C15.3333 13.0583 14.0583 14.3333 12.5 14.3333ZM17.0333 5.975C16.4667 5.975 16.0417 6.4 16.0417 6.96667C16.0417 7.53333 16.4667 7.95833 17.0333 7.95833C17.6 7.95833 18.025 7.53333 18.025 6.96667C18.025 6.4 17.6 5.975 17.0333 5.975Z" fill="black"/>
</svg>
